<?xml version="1.0" encoding="iso-8859-1"?>
<!DOCTYPE svg PUBLIC "-//W3C//DTD SVG 1.1//EN" "http://www.w3.org/Graphics/SVG/1.1/DTD/svg11.dtd">
<svg version="1.1" id="Capa_1" xmlns="http://www.w3.org/2000/svg" xmlns:xlink="http://www.w3.org/1999/xlink" x="0px" y="0px"
	 viewBox="0 0 455.731 455.731" style="enable-background:new 0 0 455.731 455.731;" xml:space="preserve">
<path d="M0,0v455.731h455.731V0H0z M361.271,163.944c0.104,2.676,0.161,5.362,0.161,8.067c0,108.339-87.831,196.18-196.18,196.18
	c-38.568,0-74.545-11.132-104.875-30.368c-0.007-0.001-0.014-0.002-0.02-0.003l0.02,0.003c0,0,0,0,0,0
	c59.293,8.843,101.06-28.888,101.06-28.888c-52.832-4.109-63.271-48.077-63.271-48.077c18.667,3.16,30.368-1.272,30.368-1.272
	c-59.465-13.912-54.407-68.329-54.407-68.329c13.77,8.228,29.733,8.864,29.733,8.864c-52.509-46.188-19.607-91.105-19.607-91.105
	c55.052,66.668,135.975,71.204,141.289,71.423c-1.167-5.011-1.784-10.23-1.784-15.592c0-37.998,30.814-68.803,68.841-68.803
	c19.825,0,37.685,8.37,50.25,21.78c3.483-0.977,6.861-2.031,10.088-3.103c19.493-6.501,33.415-13.932,33.415-13.932
	c-3.359,20.129-28.176,37.021-29.951,38.207c-0.066,0.047-0.104,0.066-0.104,0.066c0.038,0,0.085-0.009,0.123-0.009
	c19.265-1.927,38.948-10.107,38.948-10.107C389.428,141.433,365.19,160.859,361.271,163.944z"/>
</svg>
