<svg width="500" height="455" xmlns="http://www.w3.org/2000/svg">
 <defs>
  <clipPath clipPathUnits="userSpaceOnUse" id="imagebot_5">
   <path d="M72.54,579.23999L539.46001,579.23999L539.46001,342.14999L72.54,342.14999L72.54,579.23999z" id="imagebot_23"/>
  </clipPath>
 </defs>
 <g label="System Description and Engineering" id="imagebot_2">
  <g label="System Description and Engineering" stroke="#000000" fill="#ffffff" transform="translate(-1.80078, -1.87109) matrix(6.46913, 0, 0, -6.46913, -469.266, 3741.04)" id="imagebot_20">
   <g stroke="#000000" fill="#ffffff" clip-path="url(#imagebot_5)" id="imagebot_21">
    <path stroke-linejoin="round" stroke="#000000" stroke-linecap="round" stroke-miterlimit="10" stroke-width="0.6" fill="#ffffff" d="M137.86,534.91998L139.96,534.91998L150.041,512.47898L72.818,512.47898L79.838,534.91998L81.938,534.91998M91.178,534.91998L128.62,534.91998M128.6337,507.68298L72.8177,507.68298L72.8177,512.47888L150.0407,512.47888L150.0407,507.68298L128.5597,507.68298" id="imagebot_22"/>
   </g>
  </g>
  <g label="System Description and Engineering" stroke="#000000" clip-path="url(#imagebot_5)" transform="translate(-1.80078, -1.87109) matrix(6.46913, 0, 0, -6.46913, -469.266, 3741.04)" id="imagebot_18">
   <path stroke-linejoin="round" stroke="#000000" stroke-linecap="round" stroke-miterlimit="10" stroke-width="0.6" fill="none" d="M134.53999,523.66998L136.72999,517.99948M150.05099,512.47948L72.82799,512.47948M83.92799,529.34048L80.38799,517.99948L141.47,517.99948L136.37,529.34048L83.92799,529.34048zM83.02799,526.52048L137.63,526.52048M82.128,523.69948L138.95,523.69948M81.288,520.87948L140.21,520.87948M85.068,517.99948L87.948,529.34048M96.049,529.34048L94.488,517.99948M100.069,529.34048L99.394,520.83468M104.089,529.34048L103.909,520.83468M108.109,529.34048L108.469,520.83468M112.189,529.34048L112.999,520.83468M116.209,529.34048L117.514,520.83468M120.23,529.34048L122.075,520.83468M124.25,529.34048L127.37,517.99948M132.35,529.34048L133.445,526.50528M128.33,529.34048L132.05,517.99948M91.968,529.34048L89.748,517.99948M72.828,507.68348L72.828,512.47938L150.051,512.47938L150.051,507.68348" id="imagebot_19"/>
  </g>
  <g label="System Description and Engineering" stroke="#000000" fill="#ffffff" transform="translate(-1.80078, -1.87109) matrix(6.46913, 0, 0, -6.46913, -469.266, 3741.04)" id="imagebot_15">
   <g stroke="#000000" fill="#ffffff" clip-path="url(#imagebot_5)" id="imagebot_16">
    <path stroke-linejoin="round" stroke="#000000" stroke-linecap="round" stroke-miterlimit="10" stroke-width="0.6" fill="#ffffff" d="M137.86,535.46002L79.845,535.46002L79.845,578.00202L139.967,578.00202L139.967,535.46002L137.867,535.46002" id="imagebot_17"/>
   </g>
  </g>
  <g label="System Description and Engineering" stroke="#000000" fill="#7f7f7f" transform="translate(-1.80078, -1.87109) matrix(6.46913, 0, 0, -6.46913, -469.266, 3741.04)" id="imagebot_11">
   <g stroke="#000000" fill="#7f7f7f" clip-path="url(#imagebot_5)" id="imagebot_12">
    <path stroke-linejoin="round" stroke="#000000" stroke-linecap="round" stroke-miterlimit="10" stroke-width="0.6" fill="#000000" d="M85.303,574.28003L134.805,574.28003L134.805,539.17903L85.303,539.17903L85.303,574.28003z" id="imagebot_14"/>
    <path stroke-linejoin="round" stroke="#000000" stroke-linecap="round" stroke-miterlimit="10" stroke-width="0.6" fill="#000000" d="M85.303,574.28003L134.805,574.28003L134.805,539.17903L85.303,539.17903L85.303,574.28003z" id="imagebot_13"/>
   </g>
  </g>
  <path transform="translate(-1.80078, -1.87109) matrix(1.25, 0, 0, -1.25, -94.154, 794.66)" label="System Description and Engineering" fill-rule="evenodd" stroke="#000000" stroke-width="5.1753" fill="#e3e3e3" d="M141.38,433.26001L397.57001,433.26001" id="imagebot_10"/>
  <g label="System Description and Engineering" stroke="#000000" transform="translate(-1.80078, -1.87109) matrix(6.46913, 0, 0, -6.46913, -469.266, 3741.04)" id="imagebot_7">
   <g stroke="#000000" clip-path="url(#imagebot_5)" id="imagebot_8">
    <path stroke-linejoin="round" stroke="#000000" stroke-linecap="round" stroke-miterlimit="10" stroke-width="0.6" fill="none" d="M137.86,536.17999L128.6196,536.17999L128.6196,534.19989L137.86,534.19989L137.86,536.17999z" id="imagebot_9"/>
   </g>
  </g>
  <g label="System Description and Engineering" stroke="#000000" transform="translate(-1.80078, -1.87109) matrix(6.46913, 0, 0, -6.46913, -469.266, 3741.04)" id="imagebot_3">
   <g stroke="#000000" clip-path="url(#imagebot_5)" id="imagebot_4">
    <path stroke-linejoin="round" stroke="#000000" stroke-linecap="round" stroke-miterlimit="10" stroke-width="0.6" fill="none" d="M81.943,536.17999L91.1834,536.17999L91.1834,534.19989L81.943,534.19989L81.943,536.17999z" id="imagebot_6"/>
   </g>
  </g>
  <title>System Description and Engineering</title>
  <text xml:space="preserve" text-anchor="middle" font-family="Monospace" font-size="78" id="imagebot_24" y="150" x="244" stroke-linecap="round" stroke-linejoin="round" stroke-width="1.5" stroke="#000000" fill="#00ff7f">ERROR!</text>
 </g>
 <metadata>image/svg+xmlOpenclipartLaptop2010-03-18T18:22:51Simple Wire frame laptophttps://openclipart.org/detail/32353/laptop-by-deusinvictusdeusinvictuslaptopnotebookportable computer</metadata>
</svg>